<svg width="223" height="88" viewBox="0 0 223 88" fill="none" xmlns="http://www.w3.org/2000/svg">
<path d="M43.6255 73.9582C26.989 72.3015 14.8454 57.472 16.5021 40.8355C18.1588 24.199 32.9883 12.0555 49.6248 13.7122C66.2612 15.3688 78.4048 30.1984 76.7481 46.8348C75.0915 63.4713 60.2619 75.6148 43.6255 73.9582Z" fill="white"/>
<path d="M96.8837 68.2957H95.737V73.3499H94.7601V68.2957H93.6133V68.8054H92.9763V67.4038H93.1037H97.3934H97.5208V68.8054H96.8837V68.2957V68.2957ZM163.183 71.6086V72.458H161.781V67.4038H160.932H160.804V73.3074H163.947V73.0101V72.458V71.6086H163.225H163.183ZM210.794 72.7128H211.431V73.3499H209.817H209.52C210.327 71.3962 211.091 69.4 211.898 67.4463H212.875C213.555 69.1876 214.277 70.8865 214.956 72.5854L215.254 73.3499H214.956H213.385V72.7128H213.937L213.215 70.8865L212.323 68.593L211.601 70.3769L210.709 72.6704L210.794 72.7128ZM106.652 72.5005H109.965V73.3499H105.675V67.4463H109.88V68.2957H106.652V69.7398H108.606V70.5892H106.652V72.5005V72.5005ZM117.907 70.3769C117.907 70.122 117.95 69.8672 118.035 69.6124C118.12 69.3575 118.247 69.1027 118.417 68.8903C118.587 68.6355 118.757 68.4231 119.012 68.2533C119.224 68.0834 119.479 67.9135 119.776 67.7861C120.074 67.6586 120.371 67.5737 120.626 67.4888C120.923 67.4038 121.22 67.4038 121.518 67.4038C121.815 67.4038 122.112 67.4463 122.41 67.4888C122.707 67.5737 123.004 67.6586 123.301 67.7861C123.429 67.871 123.556 67.9135 123.641 67.9559C123.726 67.9984 123.811 68.0409 123.854 68.0834L123.939 68.1683L123.216 68.7629L123.132 68.7204L123.047 68.678L122.792 68.5506C122.579 68.4656 122.367 68.3807 122.155 68.3382C121.942 68.2957 121.73 68.2533 121.518 68.2533C121.305 68.2533 121.093 68.2957 120.881 68.3382C120.668 68.3807 120.456 68.4656 120.243 68.5506C120.031 68.6355 119.861 68.7629 119.691 68.8903C119.521 69.0178 119.394 69.1876 119.267 69.3575C119.139 69.5274 119.054 69.6973 119.012 69.8672C118.969 70.0371 118.927 70.207 118.927 70.4193C118.927 70.5892 118.969 70.8016 119.012 70.9715C119.054 71.1414 119.139 71.3113 119.267 71.4811C119.394 71.651 119.521 71.8209 119.691 71.9483C119.861 72.0758 120.031 72.2032 120.243 72.2881C120.456 72.3731 120.668 72.458 120.881 72.5005C121.093 72.5429 121.305 72.5854 121.518 72.5854C121.73 72.5854 121.942 72.5429 122.155 72.5005C122.367 72.458 122.579 72.3731 122.792 72.2881L123.047 72.1607L123.132 72.1182L123.216 72.0758L123.939 72.6704L123.854 72.7553C123.811 72.7978 123.726 72.8403 123.641 72.8827C123.556 72.9252 123.429 72.9677 123.301 73.0526C123.004 73.18 122.707 73.265 122.41 73.3499C122.112 73.3924 121.815 73.4349 121.518 73.4349C121.22 73.4349 120.923 73.3924 120.626 73.3499C120.328 73.3074 120.031 73.18 119.776 73.0526C119.479 72.9252 119.224 72.7553 119.012 72.5854C118.799 72.4155 118.587 72.2032 118.417 71.9483C118.247 71.736 118.12 71.4811 118.035 71.2263C117.95 70.9715 117.907 70.7166 117.907 70.4618V70.3769V70.3769ZM132.815 69.0602V73.3499H131.838V67.4463H132.773L135.831 71.6935V67.4463H136.808V73.3499H135.873L132.815 69.0602ZM148.36 67.4038C148.657 67.4038 148.955 67.4463 149.252 67.4888C149.549 67.5737 149.847 67.6586 150.144 67.7861C150.441 67.9135 150.696 68.0834 150.908 68.2533C151.121 68.4231 151.333 68.6355 151.503 68.8903C151.673 69.1452 151.8 69.4 151.885 69.6124C151.97 69.8672 152.013 70.122 152.013 70.3769C152.013 70.6317 151.97 70.8865 151.885 71.1414C151.8 71.3962 151.673 71.651 151.545 71.8634C151.376 72.1182 151.206 72.3306 150.951 72.5005C150.738 72.6704 150.484 72.8403 150.186 72.9677C149.889 73.0951 149.592 73.18 149.294 73.265C148.997 73.3499 148.7 73.3499 148.403 73.3499C148.105 73.3499 147.808 73.3074 147.511 73.265C147.213 73.18 146.916 73.0951 146.619 72.9677C146.321 72.8403 146.067 72.6704 145.854 72.5005C145.642 72.3306 145.429 72.1182 145.26 71.8634C145.09 71.6086 144.962 71.3962 144.92 71.1414C144.835 70.8865 144.792 70.6317 144.792 70.3769C144.792 70.122 144.835 69.8672 144.92 69.6124C145.005 69.3575 145.132 69.1027 145.302 68.8903C145.472 68.6355 145.642 68.4231 145.897 68.2533C146.109 68.0834 146.364 67.9135 146.661 67.7861C146.958 67.6586 147.256 67.5737 147.553 67.4888C147.85 67.4038 148.148 67.4038 148.445 67.4038H148.36ZM148.36 68.2957C148.148 68.2957 147.935 68.3382 147.723 68.3807C147.511 68.4231 147.298 68.5081 147.086 68.593C146.874 68.678 146.704 68.8054 146.534 68.9328C146.364 69.0602 146.236 69.2301 146.109 69.4C145.982 69.5699 145.897 69.7398 145.854 69.9097C145.812 70.0796 145.769 70.2494 145.769 70.4618C145.769 70.6317 145.812 70.8016 145.854 71.0139C145.897 71.1838 145.982 71.3537 146.109 71.5236C146.236 71.6935 146.364 71.8209 146.534 71.9908C146.704 72.1182 146.874 72.2456 147.086 72.3306C147.298 72.4155 147.511 72.5005 147.723 72.5429C147.935 72.5854 148.148 72.6279 148.403 72.6279C148.87 72.6279 149.294 72.543 149.719 72.3306C149.932 72.2456 150.101 72.1182 150.271 71.9908C150.441 71.8634 150.569 71.6935 150.696 71.5236C150.823 71.3537 150.908 71.1838 150.951 71.0139C150.993 70.8441 151.036 70.6742 151.036 70.4618C151.036 70.2919 150.993 70.0796 150.951 69.9097C150.908 69.7398 150.823 69.5699 150.696 69.4C150.569 69.2301 150.441 69.0602 150.271 68.9328C150.101 68.8054 149.932 68.678 149.719 68.593C149.507 68.5081 149.294 68.4231 149.082 68.3807C148.87 68.3382 148.657 68.2957 148.445 68.2957H148.36ZM174.65 67.4038C174.948 67.4038 175.245 67.4463 175.542 67.4888C175.84 67.5737 176.137 67.6586 176.392 67.7861C176.689 67.9135 176.944 68.0834 177.156 68.2533C177.369 68.4231 177.581 68.6355 177.751 68.8903C177.921 69.1452 178.048 69.4 178.133 69.6124C178.218 69.8672 178.26 70.122 178.26 70.3769C178.26 70.6317 178.218 70.8865 178.133 71.1414C178.048 71.3962 177.921 71.651 177.793 71.8634C177.623 72.1182 177.454 72.3306 177.199 72.5005C176.986 72.6704 176.731 72.8403 176.434 72.9677C176.137 73.0951 175.84 73.18 175.542 73.265C175.245 73.3499 174.948 73.3499 174.65 73.3499C174.353 73.3499 174.056 73.3074 173.758 73.265C173.461 73.18 173.164 73.0951 172.867 72.9677C172.569 72.8403 172.314 72.6704 172.102 72.5005C171.89 72.3306 171.677 72.1182 171.507 71.8634C171.338 71.6086 171.21 71.3962 171.168 71.1414C171.083 70.8865 171.04 70.6317 171.04 70.3769C171.04 70.122 171.083 69.8672 171.168 69.6124C171.253 69.3575 171.38 69.1027 171.55 68.8903C171.72 68.6355 171.89 68.4231 172.144 68.2533C172.357 68.0834 172.612 67.9135 172.909 67.7861C173.206 67.6586 173.504 67.5737 173.801 67.4888C174.098 67.4038 174.396 67.4038 174.693 67.4038H174.65ZM174.65 68.2957C174.438 68.2957 174.226 68.3382 174.013 68.3807C173.801 68.4231 173.589 68.5081 173.376 68.593C173.164 68.678 172.994 68.8054 172.824 68.9328C172.654 69.0602 172.527 69.2301 172.399 69.4C172.272 69.5699 172.187 69.7398 172.144 69.9097C172.102 70.0796 172.06 70.2494 172.06 70.4618C172.06 70.6317 172.102 70.8016 172.144 71.0139C172.187 71.1838 172.272 71.3537 172.399 71.5236C172.527 71.6935 172.654 71.8209 172.824 71.9908C172.994 72.1182 173.164 72.2456 173.376 72.3306C173.589 72.4155 173.801 72.5005 174.013 72.5429C174.226 72.5854 174.438 72.6279 174.693 72.6279C175.16 72.6279 175.585 72.543 176.009 72.3306C176.222 72.2456 176.392 72.1182 176.562 71.9908C176.731 71.8634 176.859 71.6935 176.986 71.5236C177.114 71.3537 177.199 71.1838 177.241 71.0139C177.284 70.8441 177.326 70.6742 177.326 70.4618C177.326 70.2919 177.284 70.0796 177.241 69.9097C177.199 69.7398 177.114 69.5699 176.986 69.4C176.859 69.2301 176.731 69.0602 176.562 68.9328C176.392 68.8054 176.222 68.678 176.009 68.593C175.797 68.5081 175.585 68.4231 175.372 68.3807C175.16 68.3382 174.948 68.2957 174.735 68.2957H174.65ZM191.724 71.0989H191.215V70.2495H192.701V73.3924H191.724V73.0101C191.384 73.1376 191.045 73.265 190.747 73.3074C190.408 73.3924 190.11 73.4349 189.813 73.4349C189.516 73.4349 189.218 73.3924 188.921 73.3499C188.624 73.3074 188.326 73.18 188.072 73.0526C187.774 72.9252 187.519 72.7553 187.307 72.5854C187.095 72.4155 186.882 72.2032 186.712 71.9483C186.543 71.736 186.415 71.4811 186.33 71.2263C186.245 70.9715 186.203 70.7166 186.203 70.4618V70.3769C186.203 70.122 186.245 69.8672 186.33 69.6124C186.415 69.3575 186.543 69.1027 186.712 68.8903C186.882 68.6355 187.052 68.4231 187.307 68.2533C187.519 68.0834 187.774 67.9135 188.072 67.7861C188.369 67.6586 188.666 67.5737 188.921 67.4888C189.218 67.4038 189.516 67.4038 189.813 67.4038C190.11 67.4038 190.408 67.4463 190.705 67.4888C191.002 67.5737 191.299 67.6586 191.597 67.7861C191.724 67.871 191.852 67.9135 191.937 67.9559C192.021 67.9984 192.106 68.0409 192.149 68.0834L192.234 68.1683L191.512 68.7629L191.427 68.7204L191.342 68.678L191.087 68.5506C190.875 68.4656 190.662 68.3807 190.45 68.3382C190.238 68.2957 190.025 68.2533 189.813 68.2533C189.601 68.2533 189.388 68.2957 189.176 68.3382C188.963 68.3807 188.751 68.4656 188.539 68.5506C188.326 68.6355 188.156 68.7629 187.987 68.8903C187.817 69.0178 187.689 69.1876 187.562 69.3575C187.434 69.5274 187.35 69.6973 187.307 69.8672C187.265 70.0371 187.222 70.207 187.222 70.4193C187.222 70.5892 187.265 70.8016 187.307 70.9715C187.35 71.1414 187.434 71.3113 187.562 71.4811C187.689 71.651 187.817 71.8209 187.987 71.9483C188.156 72.0758 188.326 72.2032 188.539 72.2881C188.751 72.3731 188.963 72.458 189.176 72.5005C189.388 72.5429 189.601 72.5854 189.813 72.5854C190.025 72.5854 190.238 72.5429 190.45 72.5005C190.662 72.458 190.875 72.3731 191.087 72.2881C191.172 72.2456 191.299 72.2032 191.384 72.1182C191.469 72.0758 191.597 71.9908 191.682 71.9059V71.0989H191.724ZM200.643 73.265V67.4888H201.62V73.3924H200.643V73.265Z" fill="white"/>
<path fill-rule="evenodd" clip-rule="evenodd" d="M174.947 53.4724L174.734 53.3874C169.765 58.6965 148.444 58.2718 141.606 54.9164C137.699 53.0477 135.405 49.6924 135.193 43.8312C134.896 36.1437 138.845 32.1513 144.07 30.2826C150.738 27.3944 170.232 26.9273 174.819 32.1938C170.997 25.2284 158.043 23.5719 147.85 24.8461C136.849 26.2052 130.648 31.2594 130.606 42.6844C130.563 54.4493 136.17 59.7158 147.17 61.1599C157.661 62.5614 171.337 61.1599 174.947 53.4724V53.4724Z" fill="white"/>
<path fill-rule="evenodd" clip-rule="evenodd" d="M130.267 53.472C125.425 58.4413 107.077 57.9741 100.069 56.0203C94.1231 54.4489 90.6828 50.9237 90.6404 43.3212C90.5979 36.3132 93.3586 32.5757 98.4553 30.7494C104.911 27.3516 126.742 26.8419 130.352 32.6606C127.294 25.143 113.448 23.699 103.255 24.9307C92.7215 26.2049 86.1808 31.1741 86.0534 42.7265C85.926 54.5338 91.957 59.588 102.618 61.202C112.344 62.6885 127.931 61.0321 130.267 53.5145V53.472Z" fill="white"/>
<path fill-rule="evenodd" clip-rule="evenodd" d="M221.328 50.4994C220.86 51.6886 220.308 52.8354 219.586 53.8123C214.532 60.8626 205.995 61.797 196.991 61.5847C184.759 61.2874 175.033 57.5498 174.99 43.3216C174.948 19.5372 205.103 23.3597 213.64 27.2246C217.335 28.9235 219.926 32.3213 221.285 36.2712C222.474 39.669 222.517 47.3565 221.328 50.4994V50.4994ZM190.748 29.7305C178.303 32.5761 178.048 43.7463 180.852 49.8623C185.141 59.1213 210.879 60.3105 216.104 50.4145C219.162 44.5958 218.907 31.9815 206.972 29.8579C202.173 29.0085 195.377 28.7112 190.748 29.773V29.7305Z" fill="white"/>
<path fill-rule="evenodd" clip-rule="evenodd" d="M7.47943 41.3254C7.13965 45.9974 7.64932 50.7967 9.17832 55.4262C12.4062 65.4496 19.4991 73.2221 28.3758 77.7241C33.345 80.2724 38.739 81.6316 44.0905 81.9713L44.7276 78.8284C39.6309 78.5736 34.5767 77.2994 29.9048 74.9209C21.7926 70.8011 15.2518 63.6658 12.3213 54.4918C8.41382 42.3023 11.6417 29.0085 20.8582 19.792C28.0785 13.4212 34.959 9.72609 46.8936 8.62181C27.229 6.79551 8.96596 22.2129 7.5219 41.3679L7.47943 41.3254ZM71.4851 70.5888C71.7824 70.5038 71.9523 70.2065 71.8673 69.9092C71.7824 69.6119 71.4426 69.4845 71.1878 69.5694C70.8905 69.6544 70.7206 69.9517 70.8055 70.249C70.8905 70.5463 71.1878 70.6737 71.4851 70.5888ZM69.7862 72.4151C70.126 72.3301 70.3383 71.9479 70.2109 71.6081C70.126 71.2683 69.7437 71.0984 69.4039 71.1834C69.0641 71.2683 68.8518 71.6506 68.9792 71.9904C69.0641 72.3301 69.4464 72.5 69.7862 72.4151ZM67.5776 74.4538C68.0023 74.3263 68.2147 73.9016 68.0873 73.4769C67.9599 73.0522 67.4927 72.8398 67.1104 72.9672C66.6857 73.0946 66.4733 73.5194 66.6008 73.9441C66.7282 74.3688 67.1954 74.5812 67.5776 74.4538V74.4538ZM64.732 76.5349C65.1992 76.4075 65.454 75.8978 65.3266 75.4306C65.1992 74.9634 64.6895 74.7086 64.2223 74.8785C63.7551 75.0059 63.5003 75.5156 63.6277 75.9828C63.7551 76.4499 64.2648 76.7048 64.732 76.5349ZM61.589 78.4886C62.0987 78.3187 62.396 77.7666 62.2686 77.2569C62.0987 76.7473 61.5466 76.45 60.9944 76.6198C60.4848 76.7897 60.1875 77.3419 60.3573 77.8515C60.5272 78.3612 61.0794 78.6585 61.6315 78.4886H61.589ZM57.6391 79.9751C58.2337 79.8053 58.5735 79.1682 58.4036 78.5736C58.2337 77.9789 57.5966 77.6816 57.002 77.8515C56.4074 78.0214 56.0676 78.6585 56.2375 79.2531C56.4074 79.8477 57.0445 80.145 57.6391 79.9751ZM52.9672 81.1644C53.6467 80.952 53.9865 80.2724 53.7741 79.6354C53.5618 78.9983 52.8822 78.616 52.2027 78.8284C51.5231 79.0408 51.1833 79.7203 51.3957 80.3574C51.6081 80.9945 52.2876 81.3343 52.9672 81.1644ZM47.7431 81.759C48.4651 81.5466 48.8474 80.7821 48.635 80.1026C48.4226 79.423 47.6581 78.9983 46.9361 79.2531C46.2141 79.4655 45.8318 80.23 46.0442 80.9095C46.2566 81.5891 47.0211 82.0138 47.7431 81.759Z" fill="white"/>
<path fill-rule="evenodd" clip-rule="evenodd" d="M3.40211 61.6272C1.27849 56.573 0.0892724 51.0516 0.00432793 45.3603C-0.165561 33.0434 4.67627 21.7033 12.746 13.4212C17.248 8.74928 22.5995 5.22408 28.3758 2.84564L30.2445 6.116C24.7656 8.28208 19.7114 11.5949 15.4642 15.9696C8.07405 23.5721 3.61447 33.9353 3.78436 45.2329C3.99672 60.2681 12.4912 73.8167 25.9549 80.6547C36.2331 85.0719 45.1098 86.6009 58.5735 83.4154C39.3336 93.3115 12.0664 82.4386 3.35963 61.6272H3.40211ZM62.5659 5.26656C62.9057 5.26656 63.203 5.52139 63.203 5.90364C63.203 6.24342 62.9057 6.54072 62.5659 6.54072C62.2261 6.54072 61.9288 6.28589 61.9288 5.90364C61.9288 5.56386 62.2261 5.26656 62.5659 5.26656ZM60.0176 3.90744C60.4423 3.90744 60.7821 4.20475 60.7821 4.62947C60.7821 5.05419 60.4423 5.39397 60.06 5.39397C59.6353 5.39397 59.2955 5.09667 59.2955 4.67194C59.2955 4.24722 59.6353 3.90744 60.0176 3.90744ZM56.8322 2.46339C57.3418 2.46339 57.7666 2.84564 57.7666 3.35531C57.7666 3.86497 57.3843 4.28969 56.8746 4.28969C56.365 4.28969 55.9402 3.90744 55.9402 3.39778C55.9402 2.88811 56.3225 2.46339 56.8322 2.46339ZM52.9672 1.18922C53.5193 1.18922 53.9865 1.61394 54.029 2.16608C54.029 2.71822 53.5618 3.18542 53.0097 3.22789C52.4575 3.22789 51.9479 2.80317 51.9479 2.25103C51.9479 1.69889 52.415 1.23169 52.9672 1.18922V1.18922ZM48.8049 0.212361C49.442 0.212361 49.9517 0.679555 49.9941 1.31664C49.9941 1.95372 49.4845 2.46339 48.8474 2.50586C48.2103 2.50586 47.7006 2.03867 47.6582 1.40158C47.6582 0.7645 48.1678 0.254833 48.8049 0.212361V0.212361ZM43.9206 0C44.6426 0 45.2372 0.552139 45.2372 1.27417C45.2372 1.99619 44.6851 2.59081 43.9631 2.59081C43.2411 2.59081 42.6464 2.03867 42.6464 1.31664C42.6464 0.594611 43.1986 0 43.9206 0V0ZM38.3567 0.38225C39.1637 0.38225 39.8008 0.976861 39.8433 1.78383C39.8433 2.59081 39.2062 3.22789 38.3992 3.27036C37.5922 3.31283 36.9552 2.67575 36.9127 1.86878C36.9127 1.06181 37.5498 0.424722 38.3567 0.38225V0.38225ZM32.4106 1.69889C33.3025 1.65642 33.9821 2.33597 34.0246 3.22789C34.0246 4.07733 33.345 4.79936 32.4531 4.84183C31.5612 4.88431 30.8816 4.20475 30.8392 3.31283C30.8392 2.46339 31.5187 1.74136 32.4106 1.69889V1.69889Z" fill="white"/>
<path fill-rule="evenodd" clip-rule="evenodd" d="M28.5034 46.5919C28.4609 46.8892 28.5459 46.6768 28.4185 46.9316C28.376 47.0166 28.3335 47.0591 28.291 47.1015C27.9937 47.0591 28.0787 46.9741 27.6964 46.6343C27.4416 46.422 27.1443 46.2946 26.8895 46.0822C27.0169 45.3602 27.0593 45.7849 27.2292 45.4451C26.6771 44.9354 27.0169 45.4026 26.7196 45.3177C26.4223 45.0204 26.2948 44.7656 26.04 44.5107C25.4029 44.4258 25.1906 44.5957 24.9357 44.0435C24.2987 44.0435 24.3836 44.0011 24.0438 43.6188C23.8315 43.364 23.6616 43.1941 23.4917 42.9817C23.0245 43.0242 22.9395 43.279 22.4299 43.0242C20.7735 42.2172 21.3256 42.3446 20.8584 42.0049C20.5186 41.75 20.7735 42.0049 20.5186 41.6651C20.3487 41.3678 20.4337 41.5801 20.2213 41.3253C20.0939 40.5183 20.4337 40.3484 20.3487 39.6689C20.3063 39.499 20.2213 39.1592 20.1364 38.9469C20.0514 38.7345 19.924 38.4797 19.8815 38.2673C19.7966 37.8851 19.8815 36.9931 19.7966 36.4835C19.7117 35.8039 20.0939 35.4217 19.8815 34.9545C18.9896 35.2943 19.5842 38.5221 19.2869 39.2866C18.7773 37.5453 19.4143 38.1399 19.0321 37.4603C18.7348 36.9507 18.9896 36.9082 19.117 36.6109C19.2445 36.3136 19.1595 35.9313 19.202 35.5916C19.3294 34.9969 19.6692 34.2324 19.4993 33.5954C19.4143 33.3405 19.3719 33.5104 19.4568 33.1706L20.2638 31.047C20.4337 30.7497 20.5611 30.6223 20.731 30.3675C20.9433 30.1126 21.0283 29.9003 21.2407 29.6454C21.6229 29.1358 22.3025 28.5412 22.8971 27.7767C23.8315 26.5874 23.2793 26.545 23.789 26.3751C23.9164 26.7998 23.5766 26.7998 23.789 27.0546C24.1712 26.3326 23.704 26.2901 24.2137 25.7805C24.4685 25.5256 24.596 25.1434 24.8933 24.8461C25.1056 24.6337 25.1481 24.6762 25.2755 24.4214C25.9126 23.402 25.6153 23.9966 26.125 22.8924L25.7427 22.4252C25.0632 23.0623 25.0632 22.68 24.6384 22.9773C24.4261 23.1047 24.3836 23.3171 24.1712 23.4445C23.6191 24.1665 23.6191 24.1241 23.6191 23.7843C23.6191 23.6993 23.704 23.6569 23.7465 23.5294C23.9164 23.402 24.0438 23.2746 24.1288 23.1472C24.9357 22.0429 25.0207 22.0854 25.4879 21.6607C25.6153 21.6182 26.2524 21.2784 26.2524 21.1085L26.3373 20.9811C26.5072 20.8537 26.5072 20.7688 26.6771 20.6838C27.0169 20.5564 26.9744 20.6838 27.2292 20.5564C27.4841 20.429 27.569 20.2166 27.9937 20.0467C29.5227 19.4521 29.3528 19.4096 30.6695 19.7919C31.1367 19.9193 30.712 20.1741 32.241 19.8344C32.4958 19.7919 32.6657 19.7069 32.963 19.7919C33.6425 20.0043 33.5151 19.7069 33.9398 19.8768C34.2796 20.0043 33.8974 20.0043 34.5345 20.0467L34.3221 20.3865C34.6194 20.3865 34.8742 20.344 35.214 20.3016C36.1909 20.1317 35.5538 19.9618 36.743 20.1741C36.9978 20.2166 37.4226 20.1741 37.7199 20.1317C38.2295 20.0467 38.9516 20.1741 39.1639 19.7069C39.2913 19.4521 39.0365 19.4521 39.5037 19.2398C39.7161 19.1123 40.0134 19.0274 40.2257 19.0699C40.2682 19.5371 39.886 19.2822 40.0983 19.8344L40.523 19.7069C40.3532 20.1317 40.3532 19.7494 40.2257 20.1317C40.7354 20.2166 40.9053 19.8344 41.3725 19.5795C41.5848 19.4521 41.6273 19.4946 41.7972 19.3672C42.0945 19.4521 42.0096 19.3672 42.2219 19.5371C42.137 19.7069 41.6698 20.0467 41.5424 20.1741C40.9478 20.5139 41.1601 20.3016 40.4806 20.429C39.8435 20.5139 38.3145 21.4058 37.7623 21.6182C37.5075 21.7031 37.0403 21.7881 36.743 21.9155C35.8511 22.2553 35.4688 22.8074 35.1715 22.9773L35.2565 23.1472C35.299 23.402 35.1715 23.3596 35.0866 23.6144C35.7662 23.5719 35.7662 23.6569 36.1909 23.9542C36.6581 24.2515 36.9554 24.0816 37.3376 24.2515V24.2939C37.2952 24.5063 37.1253 24.5488 36.9554 24.8036C36.6581 25.1859 36.7855 25.6531 37.0403 25.6106H37.0828C37.3801 25.5681 37.7199 25.4407 37.8898 25.1859C38.5268 23.9542 37.9747 24.5488 39.3763 23.9117C39.7585 23.7418 39.8435 23.487 40.1833 23.2746L40.0134 22.8074C41.4999 22.2978 40.2682 21.3209 42.5192 21.5333C42.7741 21.5757 43.0714 21.7881 43.3687 21.9155C43.3687 21.9155 42.8165 22.8074 43.7509 22.6375C44.1332 22.5526 44.473 22.2128 44.8552 22.0854C44.9826 22.2553 45.195 22.5526 45.2799 22.7649C45.4073 23.1047 45.195 23.1897 45.4073 23.4445C45.7047 23.7843 45.8745 23.5719 46.1718 23.7418C46.3842 23.8692 46.0869 23.7418 46.6815 24.209C46.5966 25.2283 46.1294 24.7187 45.3224 25.1434C43.9633 25.8229 44.8552 25.5256 43.581 25.6531C43.0289 25.6955 42.0945 25.738 41.6698 25.9504C40.9902 26.2901 40.5655 26.2477 40.2682 26.7573C40.8203 26.6299 42.052 25.6955 42.6467 26.2901C42.4768 26.4176 42.3069 26.5025 42.052 26.545C42.137 26.8423 42.137 26.5874 42.137 26.9272C42.1795 27.5643 42.5192 27.4369 43.2837 27.5643L42.052 28.0315C41.2451 28.1164 41.5848 28.6261 40.9478 28.5836C40.9053 28.0315 41.7972 27.989 41.9246 27.6917C41.6698 27.5643 40.7354 27.989 40.4381 28.1589C40.1833 28.2863 40.2257 28.2439 39.9284 28.3288C39.6311 28.4138 39.7161 28.4562 39.4612 28.5412C38.994 28.7111 38.6967 28.796 38.4844 29.3057C38.1446 30.1126 36.9554 29.6454 36.4032 30.3675C36.1059 30.7073 35.9785 30.7073 35.6387 30.9621C35.5113 31.047 35.4264 31.2169 35.299 31.3443C34.9167 31.6841 35.299 31.4293 35.0017 31.2169C34.9167 31.5567 34.8318 32.0664 34.6619 32.3212L33.9823 33.0857C33.5576 33.2131 33.4302 33.1706 33.1753 33.5104C32.3684 33.7228 31.4765 34.4023 31.0093 35.1244C30.5421 35.8039 31.5614 37.5028 30.3297 37.9275C29.6502 37.248 29.9475 36.2286 29.905 36.1437C29.8625 35.9313 29.7351 35.8464 29.6502 35.634L29.098 35.8039C28.8007 35.3367 28.8857 35.3367 28.2486 35.4641L27.3142 35.634L27.2292 36.0163C26.2948 36.1012 26.4223 35.8039 25.8701 35.8464C25.7002 35.8464 25.0207 36.2286 24.8083 36.3561C23.6616 36.9082 23.8739 37.4603 23.5342 38.1824C23.2368 38.8619 22.8971 39.9662 23.1094 40.7732C23.4067 42.0473 23.9589 41.6651 25.1481 41.5801C25.4029 41.0705 25.4454 41.2404 25.6578 40.2635C26.2948 40.1361 26.2524 40.0087 27.1443 39.9662C26.9319 40.9855 26.2948 41.9199 26.2099 42.2597C26.125 42.7694 26.04 42.5995 25.9126 42.9393C26.3798 43.2366 26.6771 42.9817 27.1018 42.9393C27.8663 42.8543 27.7814 43.0667 28.2486 43.3215C28.291 43.7887 28.0362 44.6381 27.9937 45.1478C27.9513 45.4876 27.9088 45.8274 28.1212 46.0397C28.1636 46.0822 28.6308 46.422 28.6733 46.4644L28.5034 46.5919ZM41.7123 19.3672C42.0096 19.3247 42.6467 19.4096 43.0714 19.3672C43.4112 19.3247 43.2837 19.2822 43.581 19.4946C43.7934 19.622 43.9208 19.622 44.0482 19.7919C43.9633 20.0043 43.4112 20.4714 43.1988 20.5564C42.7316 20.7688 42.2644 20.344 42.137 20.9386L43.2413 20.8962C43.4961 21.151 43.4112 21.2359 43.7934 21.3634C44.0482 21.4483 44.388 21.4908 44.6428 21.4908C44.5154 21.2359 44.473 21.3634 44.4305 21.0661C44.8977 21.151 44.9826 21.3209 45.4073 21.0236C45.4923 20.4714 45.2799 20.7263 45.0251 20.2591C45.6622 20.0043 45.7047 20.3865 46.1718 20.5139C46.3842 20.1741 46.5116 20.2591 46.5966 19.9618C46.4267 19.7494 46.002 19.6645 45.6622 19.5371C45.7047 19.2822 46.002 19.1548 45.4923 18.9424C45.2375 18.8575 44.8127 18.8575 44.6428 18.7301C43.7509 18.6451 43.7934 18.9424 43.3262 18.4753C42.7741 18.5602 42.5192 18.7301 42.137 18.9424L42.4768 18.5602C41.6273 18.6027 41.4999 18.8575 41.0327 19.2398C41.33 19.4096 41.2451 19.4096 41.6273 19.4096L41.7123 19.3672ZM30.2448 52.8778C30.1598 53.3874 30.2872 52.9202 30.0749 53.26C29.6926 53.8971 29.82 53.8546 30.1173 54.2793C30.4571 54.8315 30.0749 54.4492 30.627 54.7465L31.6039 55.8083C32.1135 56.5304 32.4958 56.8277 33.0904 57.4647C33.9398 58.9088 36.7005 59.2911 37.3376 59.9281C37.55 60.1405 38.7392 63.7931 39.3338 64.6426C39.801 65.2796 40.2682 65.9167 40.4381 66.8936C40.523 67.4882 40.7354 67.5307 41.1177 67.9129C42.1795 69.0597 41.4999 68.2527 42.052 68.5075C42.1795 68.55 42.6467 69.3145 42.7741 69.4419C43.1563 69.9091 44.0907 70.6311 44.6004 70.9709C45.2375 71.3956 45.195 71.3107 45.9595 71.2258C45.9595 71.2258 46.5116 71.9053 47.446 71.5655C47.0638 71.3107 46.2568 71.1833 45.7896 70.801C45.7471 70.1639 46.002 70.3763 45.917 69.9091C45.3224 69.7392 45.4498 69.9516 45.0251 69.5269C45.11 69.272 45.2375 69.272 45.4073 69.2296C45.3224 69.0172 45.195 68.9747 45.3224 68.6774C45.4498 68.3376 45.4923 68.7624 45.3649 68.55C44.9826 68.3376 44.9402 68.6349 44.7278 68.0828C45.1525 68.1253 45.2375 68.1678 45.6197 67.9979C45.5348 67.6156 45.4498 67.6581 45.3649 67.4457C46.0869 67.3608 46.5116 67.4032 46.9788 67.021C46.9788 66.6387 47.0638 66.299 46.3417 66.0441C46.0444 65.9167 46.1718 66.0441 45.9595 65.8318C46.639 65.4495 47.4885 66.8511 48.3379 64.6001C48.5503 64.0479 48.6777 64.1754 48.7627 64.0904C49.0175 63.8781 48.7202 63.8781 49.1874 63.5383C49.7395 63.1136 49.2723 62.7738 49.3148 61.9668C50.2917 61.5846 50.1642 61.2448 51.8207 60.8201C52.8825 60.5652 52.7126 60.0131 53.0948 59.376C53.3497 58.9513 53.2222 58.8239 53.3921 58.654C53.4346 58.4841 53.5195 58.1443 53.562 57.9319C53.7319 57.2949 53.647 57.7196 53.5195 57.1674C53.4771 56.9126 53.562 56.5728 53.647 56.3605C53.8593 55.6809 53.7744 56.2331 54.0717 55.8083C54.1991 55.596 54.1991 55.4686 54.4539 55.2562C55.3034 54.5342 55.898 53.7697 55.4308 52.5804C55.2184 52.0283 54.6663 52.3681 53.3921 51.6461C52.84 51.3063 52.0755 51.3912 50.9287 51.2213C50.4615 51.1364 50.504 51.2638 50.1218 51.3912L50.0368 51.2638C49.8245 50.9665 49.9094 51.0514 49.1874 50.8816C48.8476 50.7966 48.3804 50.6267 48.0406 50.6267L47.8283 50.924C47.7008 50.7541 47.7433 50.6692 47.6584 50.4144C46.2568 50.4144 46.9788 49.9896 46.4692 49.395C46.0444 48.8854 45.8745 47.8236 44.5154 47.6112C43.666 47.4838 42.4343 47.6537 41.7972 47.3564C41.2451 47.1015 41.3725 46.9316 40.9902 46.5919C40.6929 46.337 40.2682 46.337 39.801 46.2096C39.801 46.1671 39.801 46.0397 39.6736 45.8274C39.2489 45.2328 38.7392 45.9973 39.0365 45.1478C38.357 45.1478 38.1446 45.1903 37.5925 45.4026C37.0828 45.615 36.9129 45.4026 36.3608 45.3177C35.5963 45.2752 35.0441 45.2328 34.6194 44.7231C34.5345 44.8505 34.5769 45.1053 33.77 45.4451C33.8124 45.8274 34.0673 46.0822 33.6001 46.2521C33.4727 45.7849 33.685 45.8698 33.5151 45.3177C33.3877 44.893 33.5576 44.9354 33.7275 44.6381C33.2603 44.6806 33.1329 44.9354 32.7506 45.1053C30.8394 45.8698 31.6888 45.7424 31.349 46.2946C31.2641 46.422 30.8818 46.8467 30.6695 46.9741C30.4571 46.5494 29.9899 46.2521 29.4803 46.422C28.9281 46.5494 28.9706 46.9741 28.2486 46.5919L27.9937 47.1015C27.9937 47.1015 27.9937 47.144 27.9513 47.144L28.4185 47.1015C28.4609 47.144 28.8007 47.4413 28.9281 47.4838C29.3104 47.5687 29.1405 47.1865 29.098 46.8892C29.5652 46.7193 29.4378 46.5069 30.0324 46.8467L30.1173 47.1015C30.1598 47.2289 30.1173 47.144 30.2023 47.3139C30.2872 47.4838 30.3722 47.5687 30.4571 47.7386C30.7544 48.3757 30.8818 49.2251 30.4996 49.8197C30.2448 50.202 30.1598 50.2445 30.1173 50.7117L29.6077 50.8816C29.6077 51.6885 29.183 51.9434 29.6077 52.4955C29.7351 52.6654 29.82 52.6654 29.9899 52.7928L30.2448 52.8778ZM46.2993 17.2436C46.3842 17.4134 46.3842 17.4134 46.4692 17.5833C47.531 17.5833 48.6777 17.286 48.7627 18.4328C49.1449 18.4753 49.1024 18.4328 49.4422 18.6027L49.1449 18.7726L49.4422 19.0699C49.1449 19.2398 49.1874 19.1123 48.975 19.2822C48.8901 19.3672 48.8051 19.5371 48.8476 19.7069C48.9325 20.0892 49.4847 21.151 49.9943 21.1935C50.3341 21.2359 50.2492 21.1085 50.6314 21.2359C50.8863 21.3209 50.7588 21.3634 51.1411 21.4058C51.2685 21.2784 51.4384 21.0661 51.4809 20.9386C51.6932 20.5139 51.311 20.9811 51.7357 20.429C51.9481 20.1741 51.8207 20.0043 51.9905 19.8344C52.0755 19.7494 51.9905 19.7919 52.118 19.7494C52.1604 19.7069 52.2029 19.7069 52.2878 19.6645C52.8825 19.4096 53.0099 19.7069 53.4771 19.0699C53.8593 18.5177 54.4115 18.9849 54.9211 18.2204L54.6238 18.1355H54.5813H54.5389C54.5389 18.1355 54.4964 18.1355 54.4964 18.093C54.6663 18.0081 54.6238 18.0505 55.0485 18.1355C54.9636 17.9231 55.091 18.0505 54.9211 17.9231C54.8362 17.8382 54.7937 17.8382 54.6663 17.7957C54.1991 17.6683 54.3265 17.7532 54.1566 17.5409C54.3265 17.4559 54.4539 17.4984 54.6238 17.4134C54.6663 16.9887 54.5389 17.0737 54.3265 16.8613L54.1991 16.6489C54.1142 16.564 54.0717 16.6065 53.9018 16.4791C53.9018 16.0968 53.9443 16.2242 54.0717 15.9269C53.7744 15.7995 53.6045 16.0543 53.0948 15.9269C51.9481 15.6296 51.311 16.0119 50.0368 16.2242C49.1874 16.3516 48.2955 16.4366 47.5734 16.9038C47.2761 17.0737 46.724 17.2011 46.3417 17.2011L46.2993 17.2436ZM61.1221 18.3478C61.8441 18.7301 61.6742 19.5795 61.7167 19.5795C61.929 19.8344 62.8634 20.5139 63.2032 20.5989L63.2457 20.5139L63.2882 20.4714C63.2882 20.4714 63.2882 20.429 63.3306 20.3865C63.3731 20.3016 63.3306 20.344 63.3731 20.1741L64.5623 20.8962C64.7747 21.1085 64.6897 21.0661 64.6048 21.3634C64.35 21.2359 64.1801 20.7688 63.8403 20.6838C63.9252 21.1085 64.0951 21.2359 64.35 21.4483C64.3924 21.4908 64.6897 21.7031 64.6897 21.7031C64.8596 21.9155 64.7322 22.0004 64.6473 22.1279C64.4349 22.5526 64.5623 22.2553 64.6048 22.5951C64.6897 22.9773 64.5623 22.9348 64.6048 23.1897C64.6048 23.4445 64.9021 23.8268 64.1801 23.6569C64.2225 24.1241 64.3075 23.6569 64.3075 24.0816L63.7129 24.1241C63.9252 24.5913 63.9677 24.3789 64.3924 24.5063C64.987 24.7187 65.7515 25.5256 65.7515 26.2052L64.35 26.2901C64.265 26.2901 63.8828 26.2052 63.9252 26.6299L64.1376 27.0971C64.265 27.3519 64.3924 27.4794 64.4349 27.6917C64.5623 28.5412 64.0951 27.6068 64.987 29.0933C65.2843 29.0933 65.4967 29.0084 65.794 29.0933C66.1338 29.2207 65.9214 29.3906 66.4311 29.3481C67.1531 28.8385 66.8983 29.1783 67.1531 28.9659C67.3655 28.796 67.323 28.3713 67.2805 28.1589C67.1531 27.5643 66.8983 27.6493 67.2381 26.8848C67.5354 26.2477 67.0257 26.545 67.1531 25.9504C67.3655 25.8654 67.5354 25.9079 67.7902 25.9079C67.7902 25.6531 67.7902 25.8229 67.8327 25.6531L68.0026 25.3982C68.5122 25.6106 68.7246 26.0778 69.5316 26.4176C70.0412 26.6299 70.7208 27.0971 70.8057 27.7342L70.466 27.9466C70.6783 28.074 70.8482 28.2014 71.0606 28.2439L70.8482 27.5218C70.7633 27.1821 70.5509 27.0546 70.4235 26.7998L70.6358 26.7573C70.2536 26.3751 69.7439 26.2477 69.3192 25.9079C68.9794 25.6106 68.3848 25.2283 68.2999 25.016V24.9735V24.931V24.8886V24.8461C68.4273 24.8461 68.3848 24.8461 68.5122 24.931L70.1262 26.0353C70.4235 26.2901 71.2305 27.4794 71.4853 27.5643C71.4853 27.5643 71.6977 27.6917 71.6127 27.4369C71.5702 27.3095 71.6127 27.3944 71.5278 27.3095C71.4428 27.2245 71.4004 27.1821 71.3154 27.0546C71.1455 26.8423 71.0606 26.7573 70.9756 26.46C70.9756 26.1627 70.8907 26.2477 71.4003 26.7573C71.7826 27.1396 72.1224 27.9041 72.4197 28.074C72.3772 27.8191 71.7826 26.7149 71.5702 26.4176C71.4003 26.1627 71.1455 25.5681 70.5934 24.8461C70.5934 24.8461 70.5084 24.8036 70.5084 24.7611L70.466 24.6762C70.4235 24.6337 70.3385 24.6337 70.3385 24.5913C70.2961 24.5063 70.2111 24.4638 70.1687 24.3789C70.1262 24.3364 70.1262 24.209 70.0837 24.1665C70.0412 24.1241 69.9988 24.1241 69.9563 24.0816C69.6165 23.6993 69.3617 23.3171 69.2767 23.1897C68.8945 22.8074 68.4698 22.3827 67.9601 21.873C67.6628 21.5757 67.2805 21.1085 66.8558 20.7263C66.3462 20.2591 65.5817 19.7494 64.987 19.2822C64.7747 19.1123 64.4349 18.9424 64.2225 18.7726C64.1376 18.6876 63.9252 18.4753 63.8403 18.3903C63.5855 18.2204 63.2882 18.1779 63.0758 18.0505L62.1839 17.6258C61.9715 17.4559 61.5043 17.4984 61.292 17.3285C60.9097 17.2436 60.5275 17.0737 60.1452 17.1161C60.6549 18.1355 60.7823 17.7957 61.0371 18.3903L61.1221 18.3478ZM66.4736 29.7729C66.0913 29.6879 66.2187 29.8578 66.2187 30.325C66.2187 31.0046 65.5392 30.8771 65.6241 31.9389C65.6241 32.1938 66.2187 33.1706 64.8596 33.8077L64.9021 34.3599C64.7322 34.4873 64.6048 34.5722 64.4774 34.6572C64.4774 34.9545 64.5623 35.3367 64.4774 35.5491C64.3075 35.9738 64.0951 35.634 63.9252 36.8657C63.8403 37.4179 64.0527 37.4603 64.1801 37.6302C64.265 37.7576 64.5623 38.777 64.5623 39.1592C64.5623 39.7963 64.3924 40.221 64.2225 40.8156C64.9446 41.2404 64.2225 41.6226 64.7747 42.1748C64.987 42.3446 65.1569 42.3022 65.3693 42.557C65.6241 42.8118 65.5392 42.8543 65.8365 43.0667C66.4736 43.5339 66.2187 44.0011 66.5585 44.2984C66.7709 44.5107 66.9832 44.3833 67.1956 44.6806C67.5778 45.2328 67.2805 44.8505 67.7053 45.1478C68.0026 45.3602 68.4698 45.9548 68.8945 45.6999C69.1493 45.5301 69.4466 45.3177 69.8714 45.1903C70.2536 45.0629 69.9988 45.1478 70.2536 45.1903C71.0606 45.3602 70.8907 45.1478 71.4853 44.7656C71.8675 44.5107 72.4197 43.9586 72.9293 44.2559C73.2691 44.5957 73.1417 44.6806 73.3116 45.0629L73.9912 44.893C74.2035 45.0629 74.3309 45.2328 74.3734 45.5301L74.2035 47.3564C74.1186 47.7386 73.9912 47.6961 74.1186 48.2058C74.2035 48.673 74.5008 49.3101 74.5008 49.8197C74.5008 50.2869 74.5008 51.3063 74.4159 51.6885C73.9912 53.7272 74.5858 52.1982 73.7363 54.0245C73.1842 55.1713 72.717 56.4029 72.5046 57.7621C72.3772 58.6115 71.5702 59.7158 71.3154 60.5228C70.9332 61.712 71.1455 60.9475 70.6783 61.8819C70.466 62.3066 69.9988 62.7738 69.9138 63.1136L70.5084 62.8163C70.6358 62.6039 70.8482 62.3915 71.0606 62.1367L72.3347 60.7776C72.5046 60.4803 72.6745 60.2254 72.8444 59.9281C73.2267 59.2911 73.3965 58.9937 73.6938 58.3567C73.8637 58.0169 74.0761 57.0825 74.246 56.7427C74.4159 56.4029 75.2228 54.4492 75.3503 54.1519C76.0723 52.4955 75.9449 52.8353 76.3696 51.0514C76.6669 49.9047 76.7094 48.5456 76.7943 47.3988C76.9217 46.0397 77.1766 45.0204 77.2615 43.9161C77.304 42.8118 77.2615 41.2404 77.1766 39.9662C77.1766 39.6264 76.8793 37.9275 76.8793 37.5878C76.6669 35.7614 76.4121 35.0819 75.69 33.1706C75.6051 32.9583 75.0954 32.2787 75.0105 32.0664L74.0336 30.7922C73.7363 30.1976 73.7788 30.5798 73.3541 30.2401C73.0992 30.0277 73.2691 30.0277 72.9293 29.9852C72.8869 30.5374 73.1417 30.6648 73.2267 31.1744C73.1417 31.1744 72.4622 30.8347 72.2923 30.6223C71.8675 30.1126 71.91 30.4949 71.2729 30.1976C70.6783 29.9003 70.9332 29.9003 70.6783 29.3057C70.5934 29.1358 70.5084 29.0508 70.4235 28.8809C70.3385 28.7111 70.4235 28.796 70.2961 28.6261L70.0837 28.4562L69.3617 28.7111C69.3617 28.7111 69.3192 28.7111 69.3192 28.7535L67.9601 29.1783C67.7902 29.4331 68.0875 28.9234 67.9176 29.3481L67.7902 29.5605C67.5354 29.9003 67.5354 29.9003 66.9832 29.9852C66.2612 30.0702 66.4736 29.9852 66.4311 29.9003L66.4736 29.7729Z" fill="#333333"/>
<path d="M73.0499 17.2761C75.6827 16.5706 77.2451 13.8644 76.5397 11.2316C75.8342 8.59884 73.128 7.03643 70.4952 7.74188C67.8624 8.44734 66.3 11.1535 67.0055 13.7863C67.7109 16.4191 70.4171 17.9815 73.0499 17.2761Z" fill="white"/>
</svg>
